# xmcd
#
# Track frame offsets:
#   150
#   19145
#   36332
#   58415
#   74795
#   94025
#   111222
#   138622
#   157702
#   176092
#
# Disc length: 2572 seconds
#
# Revision: 0
# Processed by: cddbd v1.5.2PL0 Copyright (c) Steve Scherf et al.
# Submitted via: uFREEDB ActiveX Control 1.5
#
DISCID=910a0a0a
DTITLE=A+ - A+
DYEAR=1900
DGENRE=Hip Hop
TTITLE0=Next Level
TTITLE1=Move on
TTITLE2=Me My microphone
TTITLE3=All I See
TTITLE4=Gusto
TTITLE5=Hard Times
TTITLE6=A+Z
TTITLE7=Wanna Be Rich
TTITLE8=My Thing
TTITLE9=Parkside Coalition
EXTD=
EXTT0=
EXTT1=
EXTT2=
EXTT3=
EXTT4=
EXTT5=
EXTT6=
EXTT7=
EXTT8=
EXTT9=
PLAYORDER=
